<?xml version="1.0" encoding="utf-8"?>
<svg version="1.1" id="Layer_1" x="0" y="0" viewBox="0 355.2 612 82.8" xmlns="http://www.w3.org/2000/svg">
  <style type="text/css">.st0{fill:#135984}.st1{fill:#645b5b}.st2{fill:#FFF}</style>
  <path class="st0" d="M 502.6 424.8 L 544.9 424.8 C 544.9 424.8 551.9 422 549.9 416.3 L 521 387.1 C 521 387.1 502.4 378.7 492.6 394.7 C 492.6 394.7 482.4 410.5 502.6 424.8 Z"/>
  <path class="st1" d="M 514.6 429.4 C 514.6 430.6 513.6 431.6 512.4 431.6 L 504.7 431.6 C 503.5 431.6 502.5 430.6 502.5 429.4 C 502.5 428.2 503.5 427.2 504.7 427.2 L 512.4 427.2 C 513.5 427.2 514.6 428.2 514.6 429.4 Z M 543.2 429.2 C 543.2 430.4 542.2 431.4 541 431.4 L 533.3 431.4 C 532.1 431.4 531.1 430.4 531.1 429.2 C 531.1 428 532.1 427 533.3 427 L 541 427 C 542.1 427.1 543.2 428 543.2 429.2 Z M 521.8 378.4 C 521.8 380.6 520 382.5 517.9 382.5 L 504.1 382.5 C 501.9 382.5 500.2 380.7 500.2 378.4 C 500.2 376.2 502 374.3 504.1 374.3 L 517.9 374.3 C 520.1 374.4 521.8 376.2 521.8 378.4 Z M 555 364.7 C 556.4 366.1 555.8 368.9 553.9 370.6 L 541.1 382.2 C 539.1 384 536.5 384.3 535.1 382.8 C 533.7 381.4 534.3 378.6 536.3 376.9 L 549.1 365.3 C 551 363.5 553.6 363.2 555 364.7 Z"/>
  <path class="st1" d="M 546.1 376.8 L 546.1 405.4 C 546.1 405.4 548.4 409 550 406.9 L 550 372.7"/>
  <g transform="matrix(1, 0, 0, 1, 5, 0)">
    <circle class="st2" cx="505.6" cy="404.8" r="11.6"/>
    <path class="st2" d="M525.5 419.1c0 1-.8 1.8-1.8 1.8h-6.9c-1 0-1.8-.8-1.8-1.8s.8-1.8 1.8-1.8h6.9c1 0 1.8.8 1.8 1.8z"/>
    <circle class="st0" cx="505.6" cy="404.8" r="7.1"/>
    <path class="st2" d="M511.6 413.6l6 5.9 5-.2-8.7-9.5"/>
  </g>
  <g transform="matrix(1, 0, 0, 1, 5, 0)">
    <circle class="st0" cx="299.6" cy="372.8" r="7.7"/>
    <circle class="st1" cx="320.3" cy="388.3" r="4.7"/>
    <path class="st0" d="M308.4 402.8c0 5-4 8.9-8.9 8.9-5 0-8.9-4-8.9-8.9v-10.2c0-5 4-8.9 8.9-8.9 5 0 8.9 4 8.9 8.9v10.2z"/>
    <path class="st0" d="M303 385.4l20.1-19s6 .6 3.3 5.5l-18.7 19.2M291.5 390.8L273.1 370s.9-6 5.7-3l18.5 19.3M302.5 410.8l17.8 19.1s5.3-.6 2.9-5.6L306.6 405M292.3 405.3L276 426.2s.7 6 5 3.1l16.4-19.4"/>
    <path class="st1" d="M314.2 393.7s4.9 4.9 9.3 2.5l9.9-10.4s5-.5 2.6 3.9l-11.2 10.5.2 9.7 10.7 10.9s.5 4.9-3.1 3.6l-20-20v-11.1l1.6.4z"/>
    <circle class="st1" cx="279.6" cy="389.3" r="4.7"/>
    <path class="st1" d="M285.6 394.7s-4.9 4.9-9.3 2.4l-9.8-10.5s-5-.6-2.6 3.9l11.1 10.6-.2 9.7-10.8 10.8s-.6 4.9 3 3.6l20.1-19.9.1-11-1.6.4z"/>
  </g>
  <g transform="matrix(1, 0, 0, 1, 5, 0)">
    <circle class="st0" cx="89.6" cy="370.3" r="6.3"/>
    <path class="st0" d="M82.9 386.2l-.8 12.5s-2.8 1.8 0 5.5l10.8 9.3.3 17.4 8.5-.2-.5-3.6-3.2-.3 1-18.3-8.1-7.8 2.5-17.9s-1-4.9-6.1-4.7l-13 8.7-.8 9.9-1.9.5v1.9l4.2.5 1.3-11 5.8-2.4z"/>
    <path class="st1" d="M102.8 393.6c0 1.2-1 2.2-2.2 2.2h-4.2c-1.2 0-2.2-1-2.2-2.2 0-1.2 1-2.2 2.2-2.2h4.2c1.2 0 2.2.9 2.2 2.2zM82.5 413.6c0 1.3-1 2.4-2.4 2.4H63.7c-1.3 0-2.4-1-2.4-2.4 0-1.3 1-2.4 2.4-2.4h16.5c1.2 0 2.3 1 2.3 2.4zM102.8 429.2c0 1.2-1 2.2-2.2 2.2h-5.4c-1.2 0-2.2-1-2.2-2.2 0-1.2 1-2.2 2.2-2.2h5.4c1.2-.1 2.2 1 2.2 2.2z"/>
    <path class="st1" d="M63.4 421.5c-1.2-.1-2.2-1.1-2.1-2.3l.2-5.4c.1-1.2 1.1-2.2 2.3-2.1 1.2.1 2.2 1.1 2.1 2.3l-.2 5.4c-.2 1.2-1.1 2.2-2.3 2.1z"/>
  </g>
  <g transform="matrix(1, 0, 0, 1, 5, 0)">
    <path class="st1" d="M190.6 400.1c-.1-9.7-17-10.1-13.8.7 1.5 6.6 13.1 11.1 14.3 16.2 4.2-6.2 15.3-10.5 14.4-19.1-.4-3.8-5.4-6.3-8.9-5.6-3.9.9-4.7 3.8-6.1 7"/>
    <path class="st0" d="M191 373.5c-15.7 0-28.6 12.8-28.6 28.6s12.8 28.6 28.6 28.6c15.7 0 28.6-12.8 28.6-28.6s-12.8-28.6-28.6-28.6zm0 50.1c-11.9 0-21.6-9.7-21.6-21.6s9.7-21.6 21.6-21.6 21.6 9.7 21.6 21.6-9.7 21.6-21.6 21.6zM200.8 368.4c0 2.1-1.7 3.8-3.8 3.8h-12.1c-2.1 0-3.8-1.7-3.8-3.8 0-2.1 1.7-3.8 3.8-3.8H197c2.1.2 3.8 1.9 3.8 3.8z"/>
    <path class="st0" d="M192.2 375.9c0 1-.7 1.7-1.7 1.7s-1.7-.7-1.7-1.7v-4.6c0-1 .7-1.7 1.7-1.7s1.7.7 1.7 1.7v4.6zM216.2 379.4c-1 1.2-2.7 1.4-3.9.3l-3.9-3.3c-1.2-1-1.4-2.7-.3-3.9 1-1.2 2.7-1.4 3.9-.3l3.9 3.3c1.1.9 1.3 2.7.3 3.9z"/>
  </g>
  <g transform="matrix(1, 0, 0, 1, 5, 0)">
    <circle class="st0" cx="400.2" cy="378.4" r="9.5"/>
    <circle class="st1" cx="428.2" cy="406.2" r="9.5"/>
    <path class="st0" d="M389.6 395.9c1-2.6-3.2 7.5-3.8 8.5-.5 1-2.4 4.4 1.9 5.1 4.3.7 1.3.7 4.3.7s5 0 5.9-1.2c1-1.2.2-3.4 0-4.6-.2-1.2.5-3.8.5-3.8s2.4 2.9 5.1 3.6c2.7.7 5.9 1.8 5.9 1.8s2.4.9 3-.7c.6-1.6-1.7-2.6-1.7-2.6l-7-3.7-5.1-6.2s-3.9-5.3-5.8-3.8c-1.5 1.8-3.2 6.9-3.2 6.9z"/>
    <path class="st1" d="M415.9 422.5h-32.6s-3.2.2-3.2-3.4v-5.9s.2-2.6 3.8-1.7c3.6.9 7.3 1.7 11 1.7 3.8 0 11.7-1 14.8-1.8 3-.8 5-1 7.7 1.7l6.3 6.3s1.4 1.2 3 1.5c1.7.3 8.1 1 8.1 1s2.9.7 2.9 2.2c0 1.5-1.2 2.4-2.4 2.4h-11.7s-3.8-.3-5-1.4c-1.1-1-2.7-2.6-2.7-2.6z"/>
  </g>
</svg>