<svg viewBox="0 0 512.034 512.034" xmlns="http://www.w3.org/2000/svg"><g fill="#0a4269"><path d="M11.401 160.324a25.6 25.6 0 0024.934 18.893 26.236 26.236 0 005.001-.478l51.712-9.916 39.782-8.73c13.094-2.354 22.1-14.484 20.565-27.699l-4.855-37.231c-.606-4.634 10.018-9.771 19.925-11.264a551.892 551.892 0 01173.448-.452c15.795 2.722 19.285 5.257 20.036 6.204a18.953 18.953 0 01.657 12.322l-3.482 24.747a30.244 30.244 0 003.849 23.407 36.986 36.986 0 0023.501 11.409c5.973 1.143 10.573 2.295 15.172 3.413 4.881 1.212 9.754 2.423 16.102 3.635l46.259 8.926a36.127 36.127 0 0024.38-1.417 31.393 31.393 0 0014.259-23.535l.282-1.237c.896-3.942 2.082-7.851 3.268-11.759a91.446 91.446 0 005.393-29.201 68.415 68.415 0 00-22.596-45.645C429.908 6.724 327.713.016 256.033.016 92.391.017 30.038 47.121 6.545 86.639a47.152 47.152 0 00-4.915 36.258l9.771 37.427zm9.805-64.947c21.231-35.729 79.206-78.293 234.829-78.293 68.719 0 166.4 6.204 221.013 59.81a51.708 51.708 0 0117.442 33.937 77.327 77.327 0 01-4.676 23.791c-1.289 4.267-2.56 8.576-3.567 12.902l-.299 1.297c-1.425 6.349-2.56 10.624-5.487 12.151a23.642 23.642 0 01-13.244-.239l-46.225-8.823c-5.973-1.143-10.59-2.295-15.189-3.413-4.881-1.212-9.754-2.423-16.085-3.635-4.087-.785-10.94-2.091-13.116-4.966a16.504 16.504 0 01-.546-10.718l3.49-24.747a32.939 32.939 0 00-3.584-24.499c-5.513-7.851-18.219-10.991-31.113-13.218a569.055 569.055 0 00-178.91.393c-18.671 2.833-36.514 13.312-34.295 30.353l4.864 37.222a8.2 8.2 0 01-7.074 8.789l-39.799 8.644-51.507 9.865a8.695 8.695 0 01-10.24-5.973l-9.737-37.376a30.234 30.234 0 013.055-23.254z"/><path d="M510.498 389.572a8.5 8.5 0 00-.265-.631 26.066 26.066 0 00-3.183-5.973l-108.467-147.2a34.273 34.273 0 00-27.486-13.884H348.91l-7.543-60.356c-.335-9.182-7.879-16.45-17.067-16.444h-25.6c-9.426 0-17.067 7.641-17.067 17.067v68.267c0 4.713 3.82 8.533 8.533 8.533s8.533-3.82 8.533-8.533v-68.267h25.6c-.003.354.02.708.068 1.058l8.533 68.267a8.533 8.533 0 008.465 7.475h29.73a17.129 17.129 0 0113.739 6.938l101.777 138.129h-68.446a8.533 8.533 0 000 17.066h76.8v68.267c0 14.138-11.461 25.6-25.6 25.6H42.701c-14.138 0-25.6-11.461-25.6-25.6v-68.267h358.4a8.533 8.533 0 000-17.066H25.455l101.777-138.129a17.127 17.127 0 0113.739-6.938h29.73a8.533 8.533 0 008.465-7.475l8.533-68.267c.048-.351.071-.704.068-1.058h25.6v68.267a8.533 8.533 0 008.533 8.533h34.133c4.713 0 8.533-3.82 8.533-8.533s-3.82-8.533-8.533-8.533h-25.6v-59.733c0-9.426-7.641-17.067-17.067-17.067h-25.6c-9.188-.006-16.731 7.262-17.067 16.444l-7.535 60.356h-22.187a34.27 34.27 0 00-27.452 13.884L5.018 382.976a25.396 25.396 0 00-3.183 5.973c-.094.188-.179.401-.265.614a25.676 25.676 0 00-1.536 8.593v71.194c.028 23.552 19.114 42.638 42.667 42.667h426.667c23.552-.028 42.638-19.114 42.667-42.667v-71.194a25.605 25.605 0 00-1.537-8.584z"/><path d="M199.8 285.773a98.05 98.05 0 0124.951-9.225 143.585 143.585 0 0162.566 0 8.533 8.533 0 103.865-16.623 160.945 160.945 0 00-70.298 0 115.151 115.151 0 00-29.303 10.889 66.397 66.397 0 00-20.941 17.203c-11.313 13.599-11.313 33.334 0 46.933a66.384 66.384 0 0020.941 17.203 115.24 115.24 0 0029.303 10.889 160.011 160.011 0 0070.298 0 115.151 115.151 0 0029.303-10.889 66.397 66.397 0 0020.941-17.203c11.313-13.599 11.313-33.334 0-46.933a8.533 8.533 0 10-13.526 10.402c6.575 7.469 6.575 18.66 0 26.129a50.268 50.268 0 01-15.633 12.646 98.05 98.05 0 01-24.951 9.225 143.585 143.585 0 01-62.566 0 97.83 97.83 0 01-24.943-9.225 50.237 50.237 0 01-15.642-12.646c-6.575-7.469-6.575-18.66 0-26.129a50.301 50.301 0 0115.635-12.646z"/></g></svg>